<svg width="48" height="45" viewBox="0 0 48 45" fill="none" xmlns="http://www.w3.org/2000/svg">
<path d="M36.4598 7.98924C35.906 7.98924 35.3647 8.144 34.9042 8.43395C34.4438 8.72389 34.0849 9.13601 33.873 9.61818C33.661 10.1003 33.6056 10.6309 33.7136 11.1428C33.8217 11.6546 34.0884 12.1248 34.4799 12.4939C34.8715 12.8629 35.3704 13.1142 35.9136 13.216C36.4567 13.3178 37.0197 13.2656 37.5314 13.0659C38.043 12.8661 38.4803 12.5279 38.7879 12.094C39.0956 11.66 39.2598 11.1499 39.2598 10.628C39.2598 9.92814 38.9648 9.25697 38.4397 8.76211C37.9146 8.26725 37.2024 7.98924 36.4598 7.98924ZM47.1932 13.3107C47.1478 11.4862 46.7852 9.68112 46.1198 7.96725C45.5265 6.50084 44.6031 5.17299 43.4132 4.0751C42.2578 2.94797 40.8455 2.08324 39.2832 1.5463C37.4694 0.900166 35.5518 0.550641 33.6132 0.512796C31.1398 0.380859 30.3465 0.380859 23.9998 0.380859C17.6532 0.380859 16.8598 0.380859 14.3865 0.512796C12.4479 0.550641 10.5303 0.900166 8.7165 1.5463C7.15708 2.08867 5.74602 2.95267 4.5865 4.0751C3.3905 5.16397 2.47292 6.49492 1.90317 7.96725C1.21755 9.67659 0.846661 11.4837 0.806504 13.3107C0.666504 15.6416 0.666504 16.3892 0.666504 22.3704C0.666504 28.3515 0.666504 29.0992 0.806504 31.4301C0.846661 33.2571 1.21755 35.0642 1.90317 36.7735C2.47292 38.2459 3.3905 39.5768 4.5865 40.6657C5.74602 41.7881 7.15708 42.6521 8.7165 43.1945C10.5303 43.8406 12.4479 44.1901 14.3865 44.228C16.8598 44.3599 17.6532 44.3599 23.9998 44.3599C30.3465 44.3599 31.1398 44.3599 33.6132 44.228C35.5518 44.1901 37.4694 43.8406 39.2832 43.1945C40.8455 42.6575 42.2578 41.7928 43.4132 40.6657C44.6084 39.5719 45.5326 38.2429 46.1198 36.7735C46.7852 35.0597 47.1478 33.2546 47.1932 31.4301C47.1932 29.0992 47.3332 28.3515 47.3332 22.3704C47.3332 16.3892 47.3332 15.6416 47.1932 13.3107ZM42.9932 31.1662C42.9762 32.562 42.7079 33.945 42.1998 35.2563C41.8273 36.2132 41.2289 37.0779 40.4498 37.785C39.693 38.5118 38.7774 39.0746 37.7665 39.4343C36.3751 39.9131 34.9076 40.1659 33.4265 40.1819C31.0932 40.2919 30.2298 40.3138 24.0932 40.3138C17.9565 40.3138 17.0932 40.3138 14.7598 40.1819C13.2219 40.209 11.6906 39.9859 10.2332 39.5222C9.26666 39.1442 8.393 38.5828 7.6665 37.873C6.89204 37.1666 6.30114 36.3012 5.93984 35.3442C5.37017 34.0142 5.0542 32.5998 5.0065 31.1662C5.0065 28.9672 4.8665 28.1536 4.8665 22.3704C4.8665 16.5871 4.8665 15.7735 5.0065 13.5746C5.01696 12.1476 5.29339 10.7334 5.82317 9.39657C6.23395 8.46841 6.86446 7.64105 7.6665 6.97772C8.3754 6.22165 9.25151 5.62117 10.2332 5.21856C11.6555 4.73488 13.1545 4.48208 14.6665 4.47091C16.9998 4.47091 17.8632 4.33897 23.9998 4.33897C30.1365 4.33897 30.9998 4.33897 33.3332 4.47091C34.8143 4.48692 36.2818 4.73973 37.6732 5.21856C38.7335 5.58941 39.6852 6.19235 40.4498 6.97772C41.2145 7.65319 41.8119 8.47902 42.1998 9.39657C42.7184 10.7356 42.9868 12.1492 42.9932 13.5746C43.1098 15.7735 43.1332 16.5871 43.1332 22.3704C43.1332 28.1536 43.1098 28.9672 42.9932 31.1662ZM23.9998 11.0898C21.6334 11.0941 19.3214 11.7594 17.356 13.0016C15.3906 14.2437 13.8601 16.0071 12.9576 18.0687C12.0552 20.1303 11.8215 22.3978 12.286 24.5846C12.7505 26.7714 13.8924 28.7793 15.5673 30.3547C17.2423 31.9302 19.3752 33.0024 21.6965 33.4358C24.0178 33.8693 26.4234 33.6447 28.6093 32.7902C30.7951 31.9358 32.6632 30.4899 33.9775 28.6353C35.2917 26.7807 35.9932 24.6005 35.9932 22.3704C35.9963 20.8863 35.688 19.4163 35.0861 18.045C34.4841 16.6736 33.6005 15.4279 32.4859 14.3795C31.3713 13.3311 30.0477 12.5008 28.5914 11.9362C27.135 11.3716 25.5746 11.084 23.9998 11.0898ZM23.9998 29.6929C22.4631 29.6929 20.9608 29.2634 19.6831 28.4588C18.4053 27.6542 17.4094 26.5106 16.8213 25.1726C16.2332 23.8346 16.0793 22.3623 16.3791 20.9418C16.6789 19.5214 17.419 18.2167 18.5056 17.1926C19.5923 16.1685 20.9768 15.4711 22.484 15.1886C23.9912 14.906 25.5535 15.051 26.9733 15.6053C28.3931 16.1595 29.6066 17.098 30.4604 18.3022C31.3141 19.5064 31.7698 20.9221 31.7698 22.3704C31.7698 23.332 31.5689 24.2842 31.1784 25.1726C30.7879 26.061 30.2156 26.8682 29.4941 27.5482C28.7725 28.2281 27.916 28.7675 26.9733 29.1355C26.0306 29.5035 25.0202 29.6929 23.9998 29.6929Z" fill="white"/>
</svg>
