<svg width="56" height="54" viewBox="0 0 56 54" fill="none" xmlns="http://www.w3.org/2000/svg">
<path d="M40.833 20.7726C38.7441 20.7718 36.6875 21.2587 34.847 22.1899C34.6791 21.773 34.3805 21.4142 33.991 21.161C33.6015 20.9079 33.1395 20.7724 32.6663 20.7726H23.333C23.0266 20.7724 22.7231 20.8292 22.4399 20.9396C22.1567 21.0501 21.8994 21.2121 21.6827 21.4163C21.466 21.6205 21.2941 21.863 21.1769 22.1299C21.0597 22.3967 20.9995 22.6827 20.9997 22.9716V49.359C20.9995 49.6478 21.0597 49.9338 21.1769 50.2007C21.2941 50.4675 21.466 50.71 21.6827 50.9142C21.8994 51.1185 22.1567 51.2804 22.4399 51.3909C22.7231 51.5013 23.0266 51.5581 23.333 51.5579H32.6663C32.9728 51.5581 33.2763 51.5013 33.5595 51.3909C33.8427 51.2804 34.1 51.1185 34.3167 50.9142C34.5334 50.71 34.7052 50.4675 34.8224 50.2007C34.9396 49.9338 34.9999 49.6478 34.9997 49.359V37.2647C34.9997 36.6815 35.2455 36.1222 35.6831 35.7099C36.1207 35.2975 36.7142 35.0658 37.333 35.0658C37.9519 35.0658 38.5453 35.2975 38.9829 35.7099C39.4205 36.1222 39.6663 36.6815 39.6663 37.2647V49.359C39.6662 49.6478 39.7264 49.9338 39.8436 50.2007C39.9608 50.4675 40.1327 50.71 40.3494 50.9142C40.5661 51.1185 40.8234 51.2804 41.1065 51.3909C41.3897 51.5013 41.6932 51.5581 41.9997 51.5579H51.333C51.6395 51.5581 51.943 51.5013 52.2262 51.3909C52.5093 51.2804 52.7666 51.1185 52.9833 50.9142C53.2 50.71 53.3719 50.4675 53.4891 50.2007C53.6063 49.9338 53.6665 49.6478 53.6663 49.359V32.8668C53.6621 29.6605 52.3087 26.5866 49.9029 24.3193C47.4971 22.0521 44.2353 20.7766 40.833 20.7726ZM48.9997 47.16H44.333V37.2647C44.333 35.5152 43.5955 33.8372 42.2828 32.6001C40.97 31.3629 39.1895 30.6679 37.333 30.6679C35.4765 30.6679 33.696 31.3629 32.3833 32.6001C31.0705 33.8372 30.333 35.5152 30.333 37.2647V47.16H25.6664V25.1705H30.333V26.7167C30.3333 27.1723 30.4837 27.6166 30.7634 27.9882C31.0431 28.3598 31.4384 28.6404 31.8946 28.7913C32.3508 28.9421 32.8454 28.9558 33.3102 28.8304C33.775 28.7049 34.187 28.4466 34.4893 28.091C35.5364 26.8377 36.9727 25.9238 38.5976 25.477C40.2226 25.0302 41.955 25.0727 43.553 25.5987C45.1511 26.1246 46.5349 27.1078 47.5114 28.4108C48.4879 29.7138 49.0082 31.2717 48.9997 32.8668V47.16ZM16.333 20.7726H6.99969C6.69322 20.7724 6.38972 20.8292 6.10655 20.9396C5.82338 21.0501 5.56609 21.2121 5.34938 21.4163C5.13268 21.6205 4.96081 21.863 4.84361 22.1299C4.72641 22.3967 4.66618 22.6827 4.66635 22.9716V49.359C4.66618 49.6478 4.72641 49.9338 4.84361 50.2007C4.9608 50.4675 5.13267 50.71 5.34938 50.9142C5.56608 51.1185 5.82338 51.2804 6.10655 51.3909C6.38972 51.5013 6.69322 51.5581 6.99969 51.5579H16.333C16.6395 51.5581 16.943 51.5013 17.2262 51.3909C17.5093 51.2804 17.7666 51.1185 17.9833 50.9142C18.2 50.71 18.3719 50.4675 18.4891 50.2007C18.6063 49.9338 18.6665 49.6478 18.6664 49.359V22.9716C18.6665 22.6827 18.6063 22.3967 18.4891 22.1299C18.3719 21.863 18.2 21.6205 17.9833 21.4163C17.7666 21.2121 17.5093 21.0501 17.2262 20.9396C16.943 20.8292 16.6395 20.7724 16.333 20.7726ZM13.9997 47.16H9.33302V25.1705H13.9997V47.16ZM11.7005 4.37501C10.6794 4.3174 9.65646 4.45614 8.69398 4.78279C7.73151 5.10944 6.84959 5.61717 6.10186 6.27511C5.35413 6.93304 4.75622 7.72743 4.34449 8.60997C3.93276 9.49251 3.71581 10.4447 3.70683 11.4088C3.69786 12.3728 3.89705 13.3285 4.29229 14.2177C4.68752 15.1069 5.27055 15.9111 6.00592 16.5813C6.74128 17.2515 7.61361 17.7737 8.56985 18.1162C9.5261 18.4587 10.5463 18.6144 11.5684 18.5736H11.6344C12.6583 18.631 13.6838 18.4909 14.6483 18.1621C15.6128 17.8333 16.496 17.3226 17.244 16.6612C17.992 15.9999 18.589 15.2017 18.9986 14.3155C19.4082 13.4294 19.6218 12.4738 19.6263 11.5072C19.6308 10.5406 19.4261 9.58334 19.0248 8.69382C18.6235 7.8043 18.0339 7.00124 17.2921 6.33372C16.5503 5.66619 15.6718 5.14821 14.7104 4.81144C13.749 4.47466 12.7249 4.32616 11.7005 4.37501H11.7005ZM11.6345 14.1757H11.5684C11.1648 14.2219 10.7555 14.1863 10.3678 14.0711C9.98015 13.956 9.62306 13.7641 9.32052 13.5083C9.01798 13.2525 8.77698 12.9386 8.61369 12.5878C8.45039 12.237 8.36857 11.8574 8.37372 11.4743C8.37372 9.83371 9.67938 8.77289 11.7005 8.77289C12.1082 8.72168 12.5227 8.75339 12.9162 8.86587C13.3098 8.97836 13.6732 9.16901 13.9819 9.425C14.2907 9.68098 14.5377 9.99634 14.7062 10.3499C14.8747 10.7034 14.9609 11.0868 14.959 11.4743C14.959 13.115 13.6533 14.1757 11.6345 14.1757Z" fill="white"/>
</svg>
