<svg width="1440" height="623" viewBox="0 0 1440 623" fill="none" xmlns="http://www.w3.org/2000/svg">
<g filter="url(#filter0_d_184_29)">
<mask id="path-1-inside-1_184_29" fill="white">
<path fill-rule="evenodd" clip-rule="evenodd" d="M-47 169.503V622.5H1472L1472 169.503C1472 169.503 756.185 135.046 407.226 27.037C58.2667 -80.9724 -47 169.503 -47 169.503Z"/>
</mask>
<path fill-rule="evenodd" clip-rule="evenodd" d="M-47 169.503V622.5H1472L1472 169.503C1472 169.503 756.185 135.046 407.226 27.037C58.2667 -80.9724 -47 169.503 -47 169.503Z" fill="#D75C5F"/>
<path d="M-47 622.5H-48V623.5H-47V622.5ZM-47 169.503L-47.9219 169.116L-48 169.302V169.503H-47ZM1472 622.5V623.5H1473V622.5H1472ZM1472 169.503H1473V168.55L1472.05 168.505L1472 169.503ZM407.226 27.037L407.522 26.0817L407.226 27.037ZM-46 622.5V169.503H-48V622.5H-46ZM1472 621.5H-47V623.5H1472V621.5ZM1471 169.503L1471 622.5H1473L1473 169.503H1471ZM1472 169.503C1472.05 168.505 1472.05 168.504 1472.04 168.504C1472.03 168.504 1472.03 168.504 1472.02 168.503C1471.99 168.502 1471.96 168.5 1471.92 168.498C1471.83 168.494 1471.7 168.488 1471.53 168.479C1471.18 168.462 1470.67 168.437 1469.99 168.403C1468.62 168.334 1466.59 168.231 1463.93 168.091C1458.6 167.813 1450.74 167.39 1440.62 166.814C1420.37 165.661 1391.05 163.893 1354.77 161.434C1282.22 156.517 1181.85 148.835 1070.57 137.779C847.997 115.663 581.895 80.0533 407.522 26.0817L406.93 27.9923C581.517 82.0301 847.802 117.654 1070.37 139.769C1181.67 150.828 1282.07 158.511 1354.63 163.43C1390.92 165.889 1420.25 167.657 1440.5 168.81C1450.63 169.387 1458.49 169.81 1463.82 170.089C1466.49 170.228 1468.52 170.331 1469.89 170.4C1470.57 170.434 1471.08 170.46 1471.43 170.477C1471.6 170.485 1471.73 170.492 1471.82 170.496C1471.86 170.498 1471.9 170.5 1471.92 170.501C1471.93 170.501 1471.94 170.502 1471.94 170.502C1471.95 170.502 1471.95 170.502 1472 169.503ZM407.522 26.0817C232.77 -28.0073 118.888 7.639 48.6786 56.9483C13.5956 81.5877 -10.5457 109.613 -25.9177 131.479C-33.6041 142.413 -39.1 151.81 -42.6765 158.479C-44.4649 161.814 -45.7735 164.467 -46.6364 166.289C-47.0679 167.2 -47.3879 167.904 -47.6007 168.381C-47.7071 168.62 -47.7868 168.802 -47.8401 168.925C-47.8668 168.987 -47.8869 169.034 -47.9005 169.066C-47.9073 169.082 -47.9125 169.094 -47.916 169.102C-47.9178 169.106 -47.9193 169.11 -47.9202 169.112C-47.9212 169.114 -47.9219 169.116 -47 169.503C-46.0781 169.891 -46.078 169.891 -46.0774 169.889C-46.0767 169.887 -46.0757 169.885 -46.0743 169.882C-46.0714 169.875 -46.0669 169.864 -46.0608 169.85C-46.0486 169.821 -46.0299 169.778 -46.0046 169.719C-45.9541 169.603 -45.8774 169.427 -45.774 169.195C-45.5672 168.732 -45.2536 168.042 -44.8288 167.145C-43.9793 165.351 -42.6856 162.728 -40.914 159.424C-37.3706 152.817 -31.9163 143.49 -24.2815 132.629C-9.01095 110.907 14.9744 83.0634 49.828 58.585C119.492 9.65879 232.723 -25.9282 406.93 27.9923L407.522 26.0817Z" fill="black" mask="url(#path-1-inside-1_184_29)"/>
</g>
<defs>
<filter id="filter0_d_184_29" x="-51" y="0" width="1527" height="630.5" filterUnits="userSpaceOnUse" color-interpolation-filters="sRGB">
<feFlood flood-opacity="0" result="BackgroundImageFix"/>
<feColorMatrix in="SourceAlpha" type="matrix" values="0 0 0 0 0 0 0 0 0 0 0 0 0 0 0 0 0 0 127 0" result="hardAlpha"/>
<feOffset dy="4"/>
<feGaussianBlur stdDeviation="2"/>
<feComposite in2="hardAlpha" operator="out"/>
<feColorMatrix type="matrix" values="0 0 0 0 0 0 0 0 0 0 0 0 0 0 0 0 0 0 0.25 0"/>
<feBlend mode="normal" in2="BackgroundImageFix" result="effect1_dropShadow_184_29"/>
<feBlend mode="normal" in="SourceGraphic" in2="effect1_dropShadow_184_29" result="shape"/>
</filter>
</defs>
</svg>
