<svg width="56" height="53" viewBox="0 0 56 53" fill="none" xmlns="http://www.w3.org/2000/svg">
<path d="M47.8187 7.77092C45.2397 5.32902 42.1685 3.39307 38.7841 2.07588C35.3996 0.758697 31.7696 0.0866125 28.1055 0.0987955C12.7519 0.0987955 0.239076 11.8346 0.225012 26.2421C0.225012 30.8566 1.5118 35.3457 3.94123 39.3203L0 52.8735L14.7805 49.2386C18.8694 51.3263 23.4503 52.4205 28.1055 52.4216H28.1195C43.4766 52.4216 55.9859 40.6858 56 26.2652C56.0035 22.8283 55.2821 19.4248 53.8774 16.2508C52.4726 13.0767 50.4123 10.1947 47.8152 7.77092H47.8187ZM28.1055 47.9951C23.9533 47.9964 19.8774 46.9482 16.3064 44.9606L15.4626 44.4856L6.69412 46.6428L9.03566 38.6177L8.48719 37.7898C6.16607 34.3276 4.93849 30.319 4.94676 26.2289C4.94676 14.2688 15.343 4.51208 28.1195 4.51208C31.1633 4.50696 34.1781 5.06712 36.99 6.16027C39.8019 7.25342 42.3554 8.85794 44.5033 10.8813C46.6586 12.8968 48.3672 15.2927 49.5306 17.9308C50.694 20.5689 51.2892 23.397 51.2818 26.252C51.2677 38.2549 40.8714 47.9951 28.1055 47.9951ZM40.8152 31.7207C40.1225 31.3942 36.7016 29.8143 36.0583 29.59C35.4184 29.3756 34.9508 29.2634 34.4937 29.9165C34.0261 30.5663 32.6901 32.0473 32.2893 32.4728C31.8885 32.9115 31.4736 32.9609 30.7775 32.6377C30.0849 32.3079 27.8383 31.6218 25.1803 29.3888C23.106 27.6571 21.7172 25.5131 21.3024 24.8633C20.9016 24.2102 21.2637 23.8606 21.6117 23.5341C21.9176 23.2438 22.3044 22.7688 22.6524 22.3928C23.004 22.0168 23.12 21.7397 23.3486 21.3043C23.5771 20.8623 23.4681 20.4863 23.2958 20.1598C23.12 19.8332 21.7313 16.6107 21.1441 15.3111C20.5816 14.028 20.0085 14.2061 19.5796 14.1896C19.1788 14.1666 18.7112 14.1666 18.2436 14.1666C17.8905 14.1748 17.543 14.2514 17.2229 14.3916C16.9029 14.5318 16.6172 14.7326 16.3837 14.9813C15.7438 15.6343 13.9543 17.2143 13.9543 20.4368C13.9543 23.6594 16.4505 26.7566 16.8021 27.1953C17.1467 27.634 21.7032 34.2275 28.6961 37.0642C30.3486 37.7404 31.6494 38.1395 32.6655 38.4429C34.3355 38.9443 35.8438 38.8684 37.0462 38.7068C38.3822 38.5155 41.1632 37.1236 41.7504 35.5964C42.327 34.0659 42.327 32.7597 42.1512 32.486C41.9789 32.2089 41.5113 32.0473 40.8152 31.7207Z" fill="white"/>
</svg>
